<svg width="1920" height="1080" viewBox="0 0 1920 1080" fill="none" xmlns="http://www.w3.org/2000/svg">
<rect width="1920" height="1080" fill="#111111"/>
<path d="M818.091 482.682V597.5H811.273V482.682H818.091ZM887.406 575H865.861V505.182H888.361C895.134 505.182 900.929 506.58 905.747 509.375C910.565 512.148 914.259 516.136 916.827 521.341C919.395 526.523 920.679 532.727 920.679 539.955C920.679 547.227 919.384 553.489 916.793 558.739C914.202 563.966 910.429 567.989 905.474 570.807C900.52 573.602 894.497 575 887.406 575ZM874.315 567.5H886.861C892.634 567.5 897.418 566.386 901.213 564.159C905.009 561.932 907.838 558.761 909.702 554.648C911.565 550.534 912.497 545.636 912.497 539.955C912.497 534.318 911.577 529.466 909.736 525.398C907.895 521.307 905.145 518.17 901.486 515.989C897.827 513.784 893.27 512.682 887.815 512.682H874.315V567.5ZM955.724 576.091C950.679 576.091 946.327 574.977 942.668 572.75C939.031 570.5 936.224 567.364 934.247 563.341C932.293 559.295 931.315 554.591 931.315 549.227C931.315 543.864 932.293 539.136 934.247 535.045C936.224 530.932 938.974 527.727 942.497 525.432C946.043 523.114 950.179 521.955 954.906 521.955C957.634 521.955 960.327 522.409 962.986 523.318C965.645 524.227 968.065 525.705 970.247 527.75C972.429 529.773 974.168 532.455 975.463 535.795C976.759 539.136 977.406 543.25 977.406 548.136V551.545H937.043V544.591H969.224C969.224 541.636 968.634 539 967.452 536.682C966.293 534.364 964.634 532.534 962.474 531.193C960.338 529.852 957.815 529.182 954.906 529.182C951.702 529.182 948.929 529.977 946.588 531.568C944.27 533.136 942.486 535.182 941.236 537.705C939.986 540.227 939.361 542.932 939.361 545.818V550.455C939.361 554.409 940.043 557.761 941.406 560.511C942.793 563.239 944.713 565.318 947.168 566.75C949.622 568.159 952.474 568.864 955.724 568.864C957.838 568.864 959.747 568.568 961.452 567.977C963.179 567.364 964.668 566.455 965.918 565.25C967.168 564.023 968.134 562.5 968.815 560.682L976.588 562.864C975.77 565.5 974.395 567.818 972.463 569.818C970.531 571.795 968.145 573.341 965.304 574.455C962.463 575.545 959.27 576.091 955.724 576.091ZM1030.87 522.636L1011.51 575H1003.32L983.96 522.636H992.688L1007.14 564.364H1007.69L1022.14 522.636H1030.87ZM1061.57 576.091C1056.52 576.091 1052.17 574.977 1048.51 572.75C1044.88 570.5 1042.07 567.364 1040.09 563.341C1038.14 559.295 1037.16 554.591 1037.16 549.227C1037.16 543.864 1038.14 539.136 1040.09 535.045C1042.07 530.932 1044.82 527.727 1048.34 525.432C1051.89 523.114 1056.02 521.955 1060.75 521.955C1063.48 521.955 1066.17 522.409 1068.83 523.318C1071.49 524.227 1073.91 525.705 1076.09 527.75C1078.27 529.773 1080.01 532.455 1081.31 535.795C1082.6 539.136 1083.25 543.25 1083.25 548.136V551.545H1042.89V544.591H1075.07C1075.07 541.636 1074.48 539 1073.3 536.682C1072.14 534.364 1070.48 532.534 1068.32 531.193C1066.18 529.852 1063.66 529.182 1060.75 529.182C1057.55 529.182 1054.77 529.977 1052.43 531.568C1050.11 533.136 1048.33 535.182 1047.08 537.705C1045.83 540.227 1045.2 542.932 1045.2 545.818V550.455C1045.2 554.409 1045.89 557.761 1047.25 560.511C1048.64 563.239 1050.56 565.318 1053.01 566.75C1055.47 568.159 1058.32 568.864 1061.57 568.864C1063.68 568.864 1065.59 568.568 1067.3 567.977C1069.02 567.364 1070.51 566.455 1071.76 565.25C1073.01 564.023 1073.98 562.5 1074.66 560.682L1082.43 562.864C1081.61 565.5 1080.24 567.818 1078.31 569.818C1076.38 571.795 1073.99 573.341 1071.15 574.455C1068.31 575.545 1065.11 576.091 1061.57 576.091ZM1103.53 505.182V575H1095.49V505.182H1103.53ZM1139.54 576.091C1134.82 576.091 1130.67 574.966 1127.1 572.716C1123.55 570.466 1120.78 567.318 1118.78 563.273C1116.8 559.227 1115.82 554.5 1115.82 549.091C1115.82 543.636 1116.8 538.875 1118.78 534.807C1120.78 530.739 1123.55 527.58 1127.1 525.33C1130.67 523.08 1134.82 521.955 1139.54 521.955C1144.27 521.955 1148.41 523.08 1151.95 525.33C1155.52 527.58 1158.29 530.739 1160.27 534.807C1162.27 538.875 1163.27 543.636 1163.27 549.091C1163.27 554.5 1162.27 559.227 1160.27 563.273C1158.29 567.318 1155.52 570.466 1151.95 572.716C1148.41 574.966 1144.27 576.091 1139.54 576.091ZM1139.54 568.864C1143.13 568.864 1146.09 567.943 1148.41 566.102C1150.72 564.261 1152.44 561.841 1153.55 558.841C1154.67 555.841 1155.22 552.591 1155.22 549.091C1155.22 545.591 1154.67 542.33 1153.55 539.307C1152.44 536.284 1150.72 533.841 1148.41 531.977C1146.09 530.114 1143.13 529.182 1139.54 529.182C1135.95 529.182 1133 530.114 1130.68 531.977C1128.36 533.841 1126.64 536.284 1125.53 539.307C1124.42 542.33 1123.86 545.591 1123.86 549.091C1123.86 552.591 1124.42 555.841 1125.53 558.841C1126.64 561.841 1128.36 564.261 1130.68 566.102C1133 567.943 1135.95 568.864 1139.54 568.864ZM1175.55 594.636V522.636H1183.32V530.955H1184.28C1184.87 530.045 1185.69 528.886 1186.73 527.477C1187.8 526.045 1189.32 524.773 1191.3 523.659C1193.3 522.523 1196.01 521.955 1199.41 521.955C1203.82 521.955 1207.71 523.057 1211.07 525.261C1214.44 527.466 1217.06 530.591 1218.95 534.636C1220.84 538.682 1221.78 543.455 1221.78 548.955C1221.78 554.5 1220.84 559.307 1218.95 563.375C1217.06 567.42 1214.45 570.557 1211.11 572.784C1207.77 574.989 1203.91 576.091 1199.55 576.091C1196.19 576.091 1193.49 575.534 1191.47 574.42C1189.45 573.284 1187.89 572 1186.8 570.568C1185.71 569.114 1184.87 567.909 1184.28 566.955H1183.6V594.636H1175.55ZM1183.46 548.818C1183.46 552.773 1184.04 556.261 1185.2 559.284C1186.36 562.284 1188.05 564.636 1190.28 566.341C1192.51 568.023 1195.23 568.864 1198.46 568.864C1201.82 568.864 1204.63 567.977 1206.88 566.205C1209.15 564.409 1210.86 562 1211.99 558.977C1213.15 555.932 1213.73 552.545 1213.73 548.818C1213.73 545.136 1213.16 541.818 1212.03 538.864C1210.91 535.886 1209.22 533.534 1206.95 531.807C1204.7 530.057 1201.87 529.182 1198.46 529.182C1195.19 529.182 1192.44 530.011 1190.21 531.67C1187.98 533.307 1186.3 535.602 1185.16 538.557C1184.03 541.489 1183.46 544.909 1183.46 548.818ZM1256.01 576.091C1250.96 576.091 1246.61 574.977 1242.95 572.75C1239.31 570.5 1236.51 567.364 1234.53 563.341C1232.57 559.295 1231.6 554.591 1231.6 549.227C1231.6 543.864 1232.57 539.136 1234.53 535.045C1236.51 530.932 1239.26 527.727 1242.78 525.432C1246.32 523.114 1250.46 521.955 1255.19 521.955C1257.91 521.955 1260.61 522.409 1263.27 523.318C1265.93 524.227 1268.35 525.705 1270.53 527.75C1272.71 529.773 1274.45 532.455 1275.74 535.795C1277.04 539.136 1277.69 543.25 1277.69 548.136V551.545H1237.32V544.591H1269.51C1269.51 541.636 1268.91 539 1267.73 536.682C1266.57 534.364 1264.91 532.534 1262.76 531.193C1260.62 529.852 1258.1 529.182 1255.19 529.182C1251.98 529.182 1249.21 529.977 1246.87 531.568C1244.55 533.136 1242.77 535.182 1241.52 537.705C1240.27 540.227 1239.64 542.932 1239.64 545.818V550.455C1239.64 554.409 1240.32 557.761 1241.69 560.511C1243.07 563.239 1244.99 565.318 1247.45 566.75C1249.9 568.159 1252.76 568.864 1256.01 568.864C1258.12 568.864 1260.03 568.568 1261.73 567.977C1263.46 567.364 1264.95 566.455 1266.2 565.25C1267.45 564.023 1268.41 562.5 1269.1 560.682L1276.87 562.864C1276.05 565.5 1274.68 567.818 1272.74 569.818C1270.81 571.795 1268.43 573.341 1265.59 574.455C1262.74 575.545 1259.55 576.091 1256.01 576.091ZM1289.93 575V522.636H1297.7V530.545H1298.24C1299.2 527.955 1300.93 525.852 1303.43 524.239C1305.93 522.625 1308.74 521.818 1311.88 521.818C1312.47 521.818 1313.21 521.83 1314.1 521.852C1314.98 521.875 1315.65 521.909 1316.11 521.955V530.136C1315.84 530.068 1315.21 529.966 1314.23 529.83C1313.28 529.67 1312.27 529.591 1311.2 529.591C1308.65 529.591 1306.38 530.125 1304.38 531.193C1302.4 532.239 1300.84 533.693 1299.68 535.557C1298.54 537.398 1297.97 539.5 1297.97 541.864V575H1289.93Z" fill="white"/>
<g clip-path="url(#clip0_701_9)">
<path d="M647.775 493L694.551 575H601L647.775 493Z" fill="white"/>
<path d="M720.576 493H694.551V575H720.576V493Z" fill="white"/>
<path d="M665.36 521.629L649.182 493L766.719 493L665.36 521.629Z" fill="white"/>
</g>
<defs>
<clipPath id="clip0_701_9">
<rect width="166" height="82" fill="white" transform="translate(601 493)"/>
</clipPath>
</defs>
</svg>
